<svg width="240" height="60" viewBox="0 0 240 60" fill="none" xmlns="http://www.w3.org/2000/svg">
<rect width="240" height="60" fill="#202020"/>
<path d="M46.236 36.288C45.096 36.288 44.118 36.096 43.302 35.712C42.486 35.328 41.82 34.818 41.304 34.182C40.8 33.534 40.428 32.82 40.188 32.04C39.948 31.26 39.828 30.48 39.828 29.7C39.828 28.944 39.954 28.182 40.206 27.414C40.458 26.634 40.842 25.92 41.358 25.272C41.886 24.624 42.54 24.102 43.32 23.706C44.112 23.31 45.036 23.112 46.092 23.112C47.196 23.112 48.15 23.31 48.954 23.706C49.758 24.102 50.418 24.63 50.934 25.29C51.462 25.938 51.852 26.646 52.104 27.414C52.368 28.182 52.5 28.944 52.5 29.7C52.5 30.444 52.374 31.206 52.122 31.986C51.87 32.754 51.48 33.468 50.952 34.128C50.436 34.776 49.788 35.298 49.008 35.694C48.228 36.09 47.304 36.288 46.236 36.288ZM46.272 35.55C47.016 35.55 47.664 35.394 48.216 35.082C48.768 34.758 49.224 34.332 49.584 33.804C49.956 33.264 50.232 32.67 50.412 32.022C50.604 31.362 50.7 30.702 50.7 30.042C50.7 29.298 50.598 28.56 50.394 27.828C50.19 27.096 49.89 26.43 49.494 25.83C49.098 25.23 48.606 24.75 48.018 24.39C47.442 24.018 46.782 23.832 46.038 23.832C45.294 23.832 44.64 23.994 44.076 24.318C43.524 24.642 43.062 25.074 42.69 25.614C42.33 26.142 42.054 26.736 41.862 27.396C41.682 28.044 41.592 28.704 41.592 29.376C41.592 30.036 41.682 30.726 41.862 31.446C42.054 32.166 42.342 32.838 42.726 33.462C43.11 34.086 43.596 34.59 44.184 34.974C44.772 35.358 45.468 35.55 46.272 35.55ZM55.883 36V35.46C56.255 35.46 56.513 35.37 56.657 35.19C56.801 34.998 56.885 34.74 56.909 34.416C56.945 34.08 56.963 33.696 56.963 33.264V28.908C56.963 28.668 56.963 28.47 56.963 28.314C56.975 28.146 56.999 27.96 57.035 27.756H55.757C55.277 27.756 54.923 27.894 54.695 28.17C54.479 28.446 54.371 28.962 54.371 29.718H53.687L53.759 27H61.715L61.805 29.718H61.121C61.109 28.962 60.995 28.446 60.779 28.17C60.575 27.894 60.191 27.756 59.627 27.756H58.511V34.092C58.511 34.332 58.505 34.548 58.493 34.74C58.493 34.92 58.475 35.112 58.439 35.316L59.573 35.262V36H55.883ZM62.9951 36V35.46C63.3671 35.46 63.6251 35.37 63.7691 35.19C63.9131 34.998 63.9971 34.74 64.0211 34.416C64.0571 34.08 64.0751 33.696 64.0751 33.264V28.908C64.0751 28.668 64.0751 28.458 64.0751 28.278C64.0871 28.086 64.1111 27.888 64.1471 27.684L63.0131 27.738V27H72.4811V27.54C72.1211 27.54 71.8631 27.636 71.7071 27.828C71.5631 28.008 71.4791 28.266 71.4551 28.602C71.4311 28.926 71.4191 29.304 71.4191 29.736L71.3831 34.092C71.3831 34.332 71.3771 34.548 71.3651 34.74C71.3651 34.92 71.3471 35.112 71.3111 35.316L72.4451 35.262V36H68.7551V35.46C69.1271 35.46 69.3851 35.37 69.5291 35.19C69.6731 34.998 69.7571 34.74 69.7811 34.416C69.8171 34.08 69.8351 33.696 69.8351 33.264L69.8531 28.908C69.8531 28.668 69.8531 28.458 69.8531 28.278C69.8651 28.086 69.8891 27.888 69.9251 27.684L66.7211 27.72C66.3491 27.72 66.0911 27.798 65.9471 27.954C65.8031 28.11 65.7191 28.338 65.6951 28.638C65.6711 28.938 65.6531 29.304 65.6411 29.736L65.6231 34.092C65.6231 34.332 65.6171 34.548 65.6051 34.74C65.6051 34.92 65.5871 35.112 65.5511 35.316L66.6851 35.262V36H62.9951ZM73.9073 40.59V40.05C74.2793 40.05 74.5373 39.954 74.6813 39.762C74.8253 39.582 74.9093 39.324 74.9333 38.988C74.9573 38.664 74.9693 38.286 74.9693 37.854L75.0053 29.16C75.0053 28.968 75.0053 28.776 75.0053 28.584C75.0173 28.392 75.0413 28.194 75.0773 27.99C74.8613 28.002 74.6453 28.014 74.4293 28.026C74.2253 28.038 74.0153 28.05 73.7993 28.062V27.306C74.3273 27.306 74.7233 27.282 74.9873 27.234C75.2633 27.186 75.4613 27.126 75.5813 27.054C75.7133 26.982 75.8213 26.904 75.9053 26.82H76.4453C76.4573 26.94 76.4693 27.084 76.4813 27.252C76.4933 27.408 76.5053 27.588 76.5173 27.792C76.8773 27.468 77.3033 27.21 77.7953 27.018C78.2993 26.814 78.8033 26.712 79.3073 26.712C80.0033 26.712 80.6513 26.892 81.2513 27.252C81.8513 27.612 82.3373 28.128 82.7093 28.8C83.0813 29.46 83.2673 30.252 83.2673 31.176C83.2673 32.196 83.0513 33.09 82.6193 33.858C82.1993 34.626 81.6413 35.226 80.9453 35.658C80.2493 36.078 79.4933 36.288 78.6773 36.288C78.2573 36.288 77.8673 36.234 77.5073 36.126C77.1593 36.03 76.8293 35.886 76.5173 35.694V38.682C76.5173 38.922 76.5113 39.132 76.4993 39.312C76.4993 39.504 76.4813 39.702 76.4453 39.906C76.6373 39.894 76.8233 39.882 77.0033 39.87C77.1953 39.87 77.3873 39.864 77.5793 39.852V40.59H73.9073ZM78.6413 35.568C79.2173 35.568 79.7093 35.394 80.1173 35.046C80.5373 34.686 80.8553 34.2 81.0713 33.588C81.2993 32.964 81.4133 32.256 81.4133 31.464C81.4133 30.816 81.3173 30.198 81.1253 29.61C80.9453 29.01 80.6513 28.524 80.2433 28.152C79.8473 27.78 79.3193 27.594 78.6593 27.594C78.2513 27.594 77.8553 27.696 77.4713 27.9C77.0993 28.092 76.7873 28.326 76.5353 28.602C76.5353 28.65 76.5353 28.722 76.5353 28.818C76.5473 28.902 76.5533 29.058 76.5533 29.286C76.5533 29.502 76.5533 29.832 76.5533 30.276C76.5533 30.708 76.5473 31.296 76.5353 32.04C76.5353 32.784 76.5353 33.726 76.5353 34.866C76.8353 35.094 77.1593 35.268 77.5073 35.388C77.8673 35.508 78.2453 35.568 78.6413 35.568ZM90.2816 36C90.2456 35.796 90.2216 35.616 90.2096 35.46C90.1976 35.304 90.1796 35.142 90.1556 34.974C89.7476 35.382 89.3036 35.706 88.8236 35.946C88.3556 36.174 87.8576 36.288 87.3296 36.288C86.4176 36.288 85.7396 36.084 85.2956 35.676C84.8516 35.256 84.6296 34.746 84.6296 34.146C84.6296 33.594 84.7976 33.12 85.1336 32.724C85.4816 32.316 85.9256 31.986 86.4656 31.734C87.0176 31.47 87.6116 31.278 88.2476 31.158C88.8956 31.026 89.5196 30.966 90.1196 30.978V29.862C90.1196 29.442 90.0836 29.046 90.0116 28.674C89.9396 28.302 89.7836 27.996 89.5436 27.756C89.3036 27.516 88.9196 27.39 88.3916 27.378C88.0436 27.366 87.6836 27.432 87.3116 27.576C86.9516 27.72 86.6876 27.966 86.5196 28.314C86.6156 28.41 86.6756 28.524 86.6996 28.656C86.7356 28.776 86.7536 28.89 86.7536 28.998C86.7536 29.142 86.6936 29.31 86.5736 29.502C86.4536 29.682 86.2436 29.766 85.9436 29.754C85.6916 29.754 85.4996 29.67 85.3676 29.502C85.2356 29.322 85.1696 29.112 85.1696 28.872C85.1696 28.464 85.3196 28.098 85.6196 27.774C85.9316 27.45 86.3576 27.192 86.8976 27C87.4376 26.808 88.0496 26.712 88.7336 26.712C89.7416 26.712 90.4856 26.982 90.9656 27.522C91.4456 28.05 91.6796 28.89 91.6676 30.042C91.6676 30.486 91.6676 30.936 91.6676 31.392C91.6676 31.836 91.6616 32.286 91.6496 32.742C91.6496 33.186 91.6496 33.636 91.6496 34.092C91.6496 34.284 91.6436 34.476 91.6316 34.668C91.6196 34.86 91.6016 35.076 91.5776 35.316C91.7936 35.304 92.0036 35.292 92.2076 35.28C92.4236 35.268 92.6396 35.256 92.8556 35.244V36H90.2816ZM90.1196 31.59C89.7116 31.602 89.2796 31.656 88.8236 31.752C88.3796 31.836 87.9656 31.968 87.5816 32.148C87.2096 32.328 86.9036 32.568 86.6636 32.868C86.4356 33.156 86.3276 33.51 86.3396 33.93C86.3636 34.374 86.5076 34.71 86.7716 34.938C87.0476 35.154 87.3716 35.262 87.7436 35.262C88.2356 35.262 88.6616 35.172 89.0216 34.992C89.3936 34.8 89.7596 34.536 90.1196 34.2C90.1076 34.068 90.1016 33.924 90.1016 33.768C90.1016 33.612 90.1016 33.45 90.1016 33.282C90.1016 33.222 90.1016 33.03 90.1016 32.706C90.1136 32.382 90.1196 32.01 90.1196 31.59ZM94.0908 36V35.46C94.5348 35.448 94.8228 35.31 94.9548 35.046C95.0988 34.77 95.1708 34.398 95.1708 33.93V28.728C95.1708 28.512 95.1768 28.32 95.1888 28.152C95.2008 27.984 95.2188 27.828 95.2428 27.684C95.0508 27.696 94.8588 27.708 94.6668 27.72C94.4868 27.72 94.3008 27.726 94.1088 27.738V27C94.4328 27 94.8468 27 95.3508 27C95.8548 26.988 96.4068 26.982 97.0068 26.982C97.6188 26.982 98.2248 26.982 98.8248 26.982C99.6648 26.982 100.349 27.156 100.877 27.504C101.417 27.84 101.681 28.356 101.669 29.052C101.657 29.532 101.489 29.982 101.165 30.402C100.853 30.81 100.355 31.098 99.6708 31.266C100.487 31.302 101.105 31.524 101.525 31.932C101.945 32.328 102.155 32.832 102.155 33.444C102.155 33.984 102.011 34.446 101.723 34.83C101.435 35.214 101.057 35.508 100.589 35.712C100.121 35.904 99.6168 36 99.0768 36H94.0908ZM96.6828 35.262C96.8148 35.274 96.9888 35.28 97.2048 35.28C97.4328 35.28 97.6428 35.28 97.8348 35.28C98.0388 35.28 98.1648 35.28 98.2128 35.28C98.8848 35.28 99.4188 35.142 99.8148 34.866C100.223 34.578 100.427 34.122 100.427 33.498C100.427 32.862 100.205 32.412 99.7608 32.148C99.3168 31.872 98.8008 31.734 98.2128 31.734C97.9608 31.734 97.6968 31.74 97.4208 31.752C97.1568 31.752 96.9228 31.758 96.7188 31.77V34.254C96.7188 34.482 96.7128 34.68 96.7008 34.848C96.7008 35.016 96.6948 35.154 96.6828 35.262ZM96.7188 31.086L98.0688 31.068C98.5608 31.056 98.9508 30.954 99.2388 30.762C99.5268 30.558 99.7308 30.312 99.8508 30.024C99.9708 29.724 100.025 29.43 100.013 29.142C100.013 28.722 99.9228 28.404 99.7428 28.188C99.5628 27.972 99.3288 27.828 99.0408 27.756C98.7648 27.672 98.4648 27.63 98.1408 27.63C97.7088 27.63 97.3608 27.708 97.0968 27.864C96.8448 28.02 96.7188 28.356 96.7188 28.872V31.086ZM107.186 27.54C106.814 27.54 106.556 27.636 106.412 27.828C106.268 28.008 106.184 28.266 106.16 28.602C106.136 28.926 106.118 29.304 106.106 29.736L106.088 34.092C106.088 34.332 106.082 34.548 106.07 34.74C106.07 34.92 106.052 35.112 106.016 35.316C106.208 35.304 106.394 35.298 106.574 35.298C106.766 35.286 106.958 35.274 107.15 35.262V36H103.478V35.46C103.85 35.46 104.108 35.37 104.252 35.19C104.396 34.998 104.48 34.74 104.504 34.416C104.54 34.08 104.558 33.696 104.558 33.264V28.908C104.558 28.668 104.558 28.458 104.558 28.278C104.57 28.086 104.594 27.888 104.63 27.684C104.438 27.696 104.246 27.708 104.054 27.72C103.874 27.72 103.688 27.726 103.496 27.738V27H107.186V27.54ZM110.714 27.864L111.29 28.296L105.764 35.226L105.152 34.722L110.714 27.864ZM113.18 27.54C112.82 27.54 112.562 27.636 112.406 27.828C112.262 28.008 112.178 28.266 112.154 28.602C112.13 28.926 112.118 29.304 112.118 29.736L112.082 34.092C112.082 34.332 112.076 34.548 112.064 34.74C112.064 34.92 112.052 35.112 112.028 35.316C112.22 35.304 112.406 35.298 112.586 35.298C112.778 35.286 112.97 35.274 113.162 35.262V36H109.472V35.46C109.844 35.46 110.102 35.37 110.246 35.19C110.39 34.998 110.474 34.74 110.498 34.416C110.534 34.08 110.552 33.696 110.552 33.264L110.57 28.908C110.57 28.668 110.57 28.458 110.57 28.278C110.582 28.086 110.606 27.888 110.642 27.684C110.45 27.696 110.258 27.708 110.066 27.72C109.886 27.72 109.7 27.726 109.508 27.738V27H113.18V27.54ZM116.563 36V35.46C116.935 35.46 117.193 35.37 117.337 35.19C117.481 34.998 117.565 34.74 117.589 34.416C117.625 34.08 117.643 33.696 117.643 33.264V28.908C117.643 28.668 117.643 28.47 117.643 28.314C117.655 28.146 117.679 27.96 117.715 27.756H116.437C115.957 27.756 115.603 27.894 115.375 28.17C115.159 28.446 115.051 28.962 115.051 29.718H114.367L114.439 27H122.395L122.485 29.718H121.801C121.789 28.962 121.675 28.446 121.459 28.17C121.255 27.894 120.871 27.756 120.307 27.756H119.191V34.092C119.191 34.332 119.185 34.548 119.173 34.74C119.173 34.92 119.155 35.112 119.119 35.316L120.253 35.262V36H116.563ZM123.675 36V35.46C124.119 35.448 124.407 35.31 124.539 35.046C124.683 34.77 124.755 34.398 124.755 33.93V28.908C124.755 28.668 124.755 28.458 124.755 28.278C124.767 28.086 124.791 27.888 124.827 27.684C124.635 27.696 124.443 27.708 124.251 27.72C124.071 27.72 123.885 27.726 123.693 27.738V27H127.365V27.54C127.005 27.54 126.747 27.624 126.591 27.792C126.447 27.96 126.363 28.17 126.339 28.422C126.315 28.662 126.303 28.896 126.303 29.124V30.78L127.419 30.744C128.391 30.72 129.153 30.828 129.705 31.068C130.269 31.296 130.665 31.614 130.893 32.022C131.133 32.418 131.253 32.856 131.253 33.336C131.253 33.912 131.115 34.398 130.839 34.794C130.575 35.19 130.221 35.49 129.777 35.694C129.333 35.898 128.847 36 128.319 36H123.675ZM126.267 35.262C126.399 35.274 126.561 35.28 126.753 35.28C126.957 35.28 127.143 35.28 127.311 35.28C127.491 35.28 127.611 35.28 127.671 35.28C128.223 35.28 128.691 35.136 129.075 34.848C129.471 34.56 129.669 34.068 129.669 33.372C129.669 32.76 129.489 32.286 129.129 31.95C128.781 31.602 128.295 31.428 127.671 31.428C127.407 31.428 127.161 31.434 126.933 31.446C126.717 31.446 126.507 31.452 126.303 31.464V34.254C126.303 34.482 126.297 34.68 126.285 34.848C126.285 35.016 126.279 35.154 126.267 35.262Z" fill="white"/>
<path d="M175 30.3323C175 30.3323 214.022 30.6495 214.982 30.3553M212.816 28C213.483 29.4993 213.982 29.9991 214.982 30.3323C215.006 30.3403 215.006 30.348 214.982 30.3553M214.982 30.3553C213.483 30.9987 213.316 31.4984 212.816 32.498" stroke="white"/>
</svg>
