<svg width="52" height="52" viewBox="0 0 52 52" fill="none" xmlns="http://www.w3.org/2000/svg">
<rect x="0.5" y="0.5" width="51" height="51" rx="9.5" stroke="#818181"/>
<path fill-rule="evenodd" clip-rule="evenodd" d="M20.3313 13.3325C21.7975 13.265 22.265 13.25 26 13.25C29.735 13.25 30.2025 13.2662 31.6675 13.3325C33.1325 13.3987 34.1325 13.6325 35.0075 13.9713C35.9237 14.3175 36.755 14.8587 37.4425 15.5587C38.1425 16.245 38.6825 17.075 39.0275 17.9925C39.3675 18.8675 39.6 19.8675 39.6675 21.33C39.735 22.7987 39.75 23.2662 39.75 27C39.75 30.735 39.7337 31.2025 39.6675 32.6688C39.6012 34.1313 39.3675 35.1313 39.0275 36.0063C38.6825 36.9239 38.1416 37.7552 37.4425 38.4425C36.755 39.1425 35.9237 39.6825 35.0075 40.0275C34.1325 40.3675 33.1325 40.6 31.67 40.6675C30.2025 40.735 29.735 40.75 26 40.75C22.265 40.75 21.7975 40.7337 20.3313 40.6675C18.8688 40.6012 17.8688 40.3675 16.9938 40.0275C16.0762 39.6825 15.2448 39.1416 14.5575 38.4425C13.858 37.7558 13.3166 36.9249 12.9713 36.0075C12.6325 35.1325 12.4 34.1325 12.3325 32.67C12.265 31.2013 12.25 30.7337 12.25 27C12.25 23.265 12.2662 22.7975 12.3325 21.3325C12.3987 19.8675 12.6325 18.8675 12.9713 17.9925C13.3172 17.0751 13.8589 16.2441 14.5587 15.5575C15.2451 14.8581 16.0756 14.3168 16.9925 13.9713C17.8675 13.6325 18.8675 13.4 20.33 13.3325H20.3313ZM31.5562 15.8075C30.1062 15.7413 29.6712 15.7275 26 15.7275C22.3287 15.7275 21.8938 15.7413 20.4437 15.8075C19.1025 15.8688 18.375 16.0925 17.89 16.2812C17.2488 16.5312 16.79 16.8275 16.3088 17.3088C15.8526 17.7526 15.5015 18.2929 15.2812 18.89C15.0925 19.375 14.8688 20.1025 14.8075 21.4437C14.7413 22.8938 14.7275 23.3287 14.7275 27C14.7275 30.6712 14.7413 31.1062 14.8075 32.5562C14.8688 33.8975 15.0925 34.625 15.2812 35.11C15.5013 35.7063 15.8525 36.2475 16.3088 36.6912C16.7525 37.1475 17.2938 37.4988 17.89 37.7188C18.375 37.9075 19.1025 38.1313 20.4437 38.1925C21.8938 38.2588 22.3275 38.2725 26 38.2725C29.6725 38.2725 30.1062 38.2588 31.5562 38.1925C32.8975 38.1313 33.625 37.9075 34.11 37.7188C34.7513 37.4688 35.21 37.1725 35.6912 36.6912C36.1475 36.2475 36.4988 35.7063 36.7188 35.11C36.9075 34.625 37.1313 33.8975 37.1925 32.5562C37.2588 31.1062 37.2725 30.6712 37.2725 27C37.2725 23.3287 37.2588 22.8938 37.1925 21.4437C37.1313 20.1025 36.9075 19.375 36.7188 18.89C36.4688 18.2488 36.1725 17.79 35.6912 17.3088C35.2474 16.8526 34.7071 16.5015 34.11 16.2812C33.625 16.0925 32.8975 15.8688 31.5562 15.8075ZM24.2438 31.2388C25.2246 31.647 26.3167 31.7021 27.3337 31.3947C28.3506 31.0872 29.2292 30.4361 29.8195 29.5528C30.4098 28.6695 30.6751 27.6086 30.5701 26.5514C30.465 25.4942 29.9963 24.5062 29.2437 23.7562C28.764 23.2768 28.184 22.9098 27.5454 22.6814C26.9068 22.4531 26.2255 22.3692 25.5506 22.4358C24.8757 22.5023 24.2239 22.7177 23.6423 23.0664C23.0606 23.4151 22.5634 23.8884 22.1866 24.4523C21.8098 25.0162 21.5627 25.6566 21.4631 26.3275C21.3636 26.9983 21.4139 27.6829 21.6107 28.3319C21.8074 28.9809 22.1456 29.5783 22.6009 30.0809C23.0562 30.5835 23.6173 30.979 24.2438 31.2388ZM21.0025 22.0025C21.6588 21.3462 22.4379 20.8256 23.2954 20.4705C24.1528 20.1153 25.0719 19.9325 26 19.9325C26.9281 19.9325 27.8472 20.1153 28.7046 20.4705C29.5621 20.8256 30.3412 21.3462 30.9975 22.0025C31.6538 22.6588 32.1744 23.4379 32.5295 24.2954C32.8847 25.1528 33.0675 26.0719 33.0675 27C33.0675 27.9281 32.8847 28.8472 32.5295 29.7046C32.1744 30.5621 31.6538 31.3412 30.9975 31.9975C29.6721 33.3229 27.8744 34.0675 26 34.0675C24.1256 34.0675 22.3279 33.3229 21.0025 31.9975C19.6771 30.6721 18.9325 28.8744 18.9325 27C18.9325 25.1256 19.6771 23.3279 21.0025 22.0025ZM34.635 20.985C34.7976 20.8316 34.9278 20.6471 35.0179 20.4425C35.1079 20.2378 35.156 20.0172 35.1593 19.7937C35.1625 19.5701 35.1209 19.3482 35.0369 19.141C34.9528 18.9338 34.828 18.7456 34.67 18.5875C34.5119 18.4295 34.3237 18.3047 34.1165 18.2206C33.9093 18.1366 33.6874 18.095 33.4638 18.0982C33.2403 18.1015 33.0197 18.1496 32.815 18.2396C32.6104 18.3297 32.4259 18.4599 32.2725 18.6225C31.9741 18.9388 31.8108 19.3589 31.8171 19.7937C31.8235 20.2284 31.999 20.6436 32.3064 20.9511C32.6139 21.2585 33.0291 21.434 33.4638 21.4404C33.8986 21.4467 34.3187 21.2834 34.635 20.985Z" fill="#393939"/>
</svg>
