<svg width="390" height="77" viewBox="0 0 390 77" fill="none" xmlns="http://www.w3.org/2000/svg">
<path d="M0.959961 54.44H6.71996C8.15996 54.44 8.87996 53.72 8.87996 52.28V4.76004C8.87996 4.01337 8.6933 3.48004 8.31996 3.16004C7.99996 2.78671 7.46663 2.60004 6.71996 2.60004H0.959961V0.0400391H55.68V2.60004H49.92C49.1733 2.60004 48.6133 2.78671 48.24 3.16004C47.92 3.48004 47.76 4.01337 47.76 4.76004V52.28C47.76 53.72 48.48 54.44 49.92 54.44H55.68V57H32.48V54.44H38.24C39.68 54.44 40.4 53.72 40.4 52.28V4.76004C40.4 4.01337 40.2133 3.48004 39.84 3.16004C39.52 2.78671 38.9866 2.60004 38.24 2.60004H18.4C17.6533 2.60004 17.0933 2.78671 16.72 3.16004C16.4 3.48004 16.24 4.01337 16.24 4.76004V52.28C16.24 53.72 16.96 54.44 18.4 54.44H24.16V57H0.959961V54.44Z" fill="#202020"/>
<path d="M78.8868 57.96C75.9535 57.96 73.2602 57.1067 70.8068 55.4C68.3535 53.64 66.4068 51.2934 64.9668 48.36C63.5802 45.4267 62.8868 42.2267 62.8868 38.76C62.8868 35.2934 63.5802 32.0934 64.9668 29.16C66.4068 26.2267 68.3535 23.9067 70.8068 22.2C73.2602 20.44 75.9535 19.56 78.8868 19.56C81.8202 19.56 84.5135 20.44 86.9668 22.2C89.4202 23.9067 91.3402 26.2267 92.7268 29.16C94.1668 32.0934 94.8868 35.2934 94.8868 38.76C94.8868 42.2267 94.1668 45.4267 92.7268 48.36C91.3402 51.2934 89.4202 53.64 86.9668 55.4C84.5135 57.1067 81.8202 57.96 78.8868 57.96ZM78.8868 56.04C82.0868 56.04 84.3802 54.5467 85.7668 51.56C87.1535 48.52 87.8468 44.2534 87.8468 38.76C87.8468 33.2667 87.1535 29.0267 85.7668 26.04C84.3802 23 82.0868 21.48 78.8868 21.48C75.6868 21.48 73.3935 23 72.0068 26.04C70.6202 29.0267 69.9268 33.2667 69.9268 38.76C69.9268 44.2534 70.6202 48.52 72.0068 51.56C73.3935 54.5467 75.6868 56.04 78.8868 56.04Z" fill="#202020"/>
<path d="M100.974 73.48H105.134C105.774 73.48 106.228 73.3467 106.494 73.08C106.761 72.8134 106.894 72.36 106.894 71.72V24.2C106.894 23.56 106.761 23.1067 106.494 22.84C106.228 22.5734 105.774 22.44 105.134 22.44H100.974V20.52H112.654V26.44L112.974 26.52C113.988 24.3867 115.268 22.7067 116.814 21.48C118.414 20.2 120.228 19.56 122.254 19.56C124.761 19.56 127.081 20.4134 129.214 22.12C131.401 23.7734 133.134 26.0667 134.414 29C135.694 31.9334 136.334 35.1867 136.334 38.76C136.334 42.3334 135.694 45.5867 134.414 48.52C133.134 51.4534 131.401 53.7734 129.214 55.48C127.081 57.1334 124.761 57.96 122.254 57.96C120.174 57.96 118.308 57.2934 116.654 55.96C115.001 54.5734 113.774 52.92 112.974 51L112.654 51.08V71.72C112.654 72.36 112.788 72.8134 113.054 73.08C113.321 73.3467 113.774 73.48 114.414 73.48H118.574V75.4H100.974V73.48ZM121.374 55.72C123.988 55.72 125.961 54.2534 127.294 51.32C128.628 48.3867 129.294 44.2 129.294 38.76C129.294 33.32 128.628 29.1334 127.294 26.2C125.961 23.2667 123.988 21.8 121.374 21.8C119.774 21.8 118.308 22.3867 116.974 23.56C115.641 24.7334 114.574 26.36 113.774 28.44C113.028 30.4667 112.654 32.68 112.654 35.08V42.44C112.654 44.84 113.028 47.08 113.774 49.16C114.574 51.1867 115.641 52.7867 116.974 53.96C118.308 55.1334 119.774 55.72 121.374 55.72Z" fill="#202020"/>
<path d="M151.021 55.08H154.381C155.021 55.08 155.474 54.9467 155.741 54.68C156.007 54.4134 156.141 53.96 156.141 53.32V24.2C156.141 23.56 156.007 23.1067 155.741 22.84C155.474 22.5734 155.021 22.44 154.381 22.44C152.674 22.44 151.234 22.8134 150.061 23.56C148.887 24.2534 147.981 25.2134 147.341 26.44C146.541 28.04 145.927 29.72 145.501 31.48C145.127 33.1867 144.941 34.2267 144.941 34.6H143.341L143.901 20.52H174.221L174.701 34.6H173.101C173.101 34.2267 172.887 33.1867 172.461 31.48C172.087 29.72 171.501 28.04 170.701 26.44C170.061 25.2134 169.154 24.2534 167.981 23.56C166.807 22.8134 165.367 22.44 163.661 22.44C163.021 22.44 162.567 22.5734 162.301 22.84C162.034 23.1067 161.901 23.56 161.901 24.2V53.32C161.901 53.96 162.034 54.4134 162.301 54.68C162.567 54.9467 163.021 55.08 163.661 55.08H167.021V57H151.021V55.08Z" fill="#202020"/>
<path d="M196.595 75.08C198.408 72.7867 199.688 70.4134 200.435 67.96C201.182 65.5067 201.555 62.76 201.555 59.72V52.44H201.395C200.862 53.9867 199.982 55.2934 198.755 56.36C197.528 57.4267 196.008 57.96 194.195 57.96C191.582 57.96 189.315 57.0267 187.395 55.16C185.528 53.24 184.115 50.8134 183.155 47.88C182.195 44.9467 181.715 41.9067 181.715 38.76C181.715 35.6134 182.195 32.5734 183.155 29.64C184.115 26.7067 185.528 24.3067 187.395 22.44C189.315 20.52 191.582 19.56 194.195 19.56C196.008 19.56 197.502 20.1467 198.675 21.32C199.848 22.4934 200.755 23.96 201.395 25.72H201.555V18.28C201.555 15.24 201.182 12.4934 200.435 10.04C199.688 7.58671 198.408 5.21337 196.595 2.92004L197.555 1.96004C198.782 2.97337 200.168 4.6267 201.715 6.92004C203.262 9.21337 204.168 11.2934 204.435 13.16C204.702 11.2934 205.608 9.21337 207.155 6.92004C208.702 4.6267 210.088 2.97337 211.315 1.96004L212.275 2.92004C210.462 5.21337 209.182 7.58671 208.435 10.04C207.688 12.4934 207.315 15.24 207.315 18.28V25.72H207.475C208.115 23.96 209.022 22.4934 210.195 21.32C211.422 20.1467 212.915 19.56 214.675 19.56C217.288 19.56 219.528 20.52 221.395 22.44C223.315 24.3067 224.755 26.7067 225.715 29.64C226.675 32.5734 227.155 35.6134 227.155 38.76C227.155 41.9067 226.675 44.9467 225.715 47.88C224.755 50.8134 223.315 53.24 221.395 55.16C219.528 57.0267 217.288 57.96 214.675 57.96C212.862 57.96 211.342 57.4267 210.115 56.36C208.888 55.2934 208.008 53.9867 207.475 52.44H207.315V59.72C207.315 62.76 207.688 65.5067 208.435 67.96C209.182 70.4134 210.462 72.7867 212.275 75.08L211.315 76.04C210.088 75.0267 208.702 73.3734 207.155 71.08C205.608 68.7867 204.702 66.7067 204.435 64.84C204.168 66.7067 203.262 68.7867 201.715 71.08C200.168 73.3734 198.782 75.0267 197.555 76.04L196.595 75.08ZM194.835 56.04C196.915 56.04 198.542 54.7067 199.715 52.04C200.942 49.3734 201.555 46.28 201.555 42.76V35.24C201.555 31.6667 200.942 28.4934 199.715 25.72C198.488 22.8934 196.862 21.48 194.835 21.48C192.435 21.48 190.808 23.1334 189.955 26.44C189.155 29.7467 188.755 33.8534 188.755 38.76C188.755 43.6667 189.155 47.7734 189.955 51.08C190.808 54.3867 192.435 56.04 194.835 56.04ZM214.035 56.04C216.435 56.04 218.035 54.3867 218.835 51.08C219.688 47.7734 220.115 43.6667 220.115 38.76C220.115 33.8534 219.688 29.7467 218.835 26.44C218.035 23.1334 216.435 21.48 214.035 21.48C212.008 21.48 210.382 22.8934 209.155 25.72C207.928 28.4934 207.315 31.6667 207.315 35.24V42.76C207.315 46.28 207.902 49.3734 209.075 52.04C210.302 54.7067 211.955 56.04 214.035 56.04Z" fill="#202020"/>
<path d="M250.84 57.96C247.907 57.96 245.213 57.1067 242.76 55.4C240.307 53.64 238.36 51.2934 236.92 48.36C235.533 45.4267 234.84 42.2267 234.84 38.76C234.84 35.2934 235.533 32.0934 236.92 29.16C238.36 26.2267 240.307 23.9067 242.76 22.2C245.213 20.44 247.907 19.56 250.84 19.56C253.773 19.56 256.467 20.44 258.92 22.2C261.373 23.9067 263.293 26.2267 264.68 29.16C266.12 32.0934 266.84 35.2934 266.84 38.76C266.84 42.2267 266.12 45.4267 264.68 48.36C263.293 51.2934 261.373 53.64 258.92 55.4C256.467 57.1067 253.773 57.96 250.84 57.96ZM250.84 56.04C254.04 56.04 256.333 54.5467 257.72 51.56C259.107 48.52 259.8 44.2534 259.8 38.76C259.8 33.2667 259.107 29.0267 257.72 26.04C256.333 23 254.04 21.48 250.84 21.48C247.64 21.48 245.347 23 243.96 26.04C242.573 29.0267 241.88 33.2667 241.88 38.76C241.88 44.2534 242.573 48.52 243.96 51.56C245.347 54.5467 247.64 56.04 250.84 56.04Z" fill="#202020"/>
<path d="M278.447 57.96C276.047 57.96 274.314 57.2667 273.247 55.88C272.181 54.4934 271.647 53.08 271.647 51.64C271.647 50.0934 272.021 48.84 272.767 47.88C273.567 46.92 274.687 46.44 276.127 46.44C277.247 46.44 278.101 46.8134 278.687 47.56C279.327 48.2534 279.647 49.1067 279.647 50.12C279.647 50.76 279.487 51.3734 279.167 51.96C278.847 52.5467 278.447 52.9467 277.967 53.16C277.327 53.4267 277.007 53.9867 277.007 54.84C277.007 55.16 277.141 55.4534 277.407 55.72C277.727 55.9334 278.047 56.04 278.367 56.04C280.501 56.04 282.127 54.9467 283.247 52.76C284.367 50.5734 285.167 46.9467 285.647 41.88L286.367 33.32C286.687 29.3734 286.847 26.4934 286.847 24.68C286.847 23.88 286.714 23.32 286.447 23C286.181 22.6267 285.567 22.44 284.607 22.44H281.567V20.52H307.967V22.44H304.607C303.967 22.44 303.514 22.5734 303.247 22.84C302.981 23.1067 302.847 23.56 302.847 24.2V53.32C302.847 53.96 302.981 54.4134 303.247 54.68C303.514 54.9467 303.967 55.08 304.607 55.08H307.887V57H291.887V55.08H295.327C295.967 55.08 296.421 54.9467 296.687 54.68C296.954 54.4134 297.087 53.96 297.087 53.32V24.2C297.087 23.56 296.954 23.1067 296.687 22.84C296.421 22.5734 295.967 22.44 295.327 22.44H292.687C291.407 22.44 290.474 22.92 289.887 23.88C289.354 24.7867 289.007 26.2267 288.847 28.2L287.647 42.52C287.274 47.4267 286.367 51.24 284.927 53.96C283.487 56.6267 281.327 57.96 278.447 57.96Z" fill="#202020"/>
<path d="M314.04 55.08H317.4C318.04 55.08 318.493 54.9467 318.76 54.68C319.027 54.4134 319.16 53.96 319.16 53.32V24.2C319.16 23.56 319.027 23.1067 318.76 22.84C318.493 22.5734 318.04 22.44 317.4 22.44H314.04V20.52H330.04V22.44H326.68C326.04 22.44 325.587 22.5734 325.32 22.84C325.053 23.1067 324.92 23.56 324.92 24.2V47.72L340.12 26.28V24.2C340.12 23.56 339.987 23.1067 339.72 22.84C339.453 22.5734 339 22.44 338.36 22.44H335V20.52H351V22.44H347.64C347 22.44 346.547 22.5734 346.28 22.84C346.013 23.1067 345.88 23.56 345.88 24.2V53.32C345.88 53.96 346.013 54.4134 346.28 54.68C346.547 54.9467 347 55.08 347.64 55.08H351V57H335V55.08H338.36C339 55.08 339.453 54.9467 339.72 54.68C339.987 54.4134 340.12 53.96 340.12 53.32V29.8L324.92 51.24V53.32C324.92 53.96 325.053 54.4134 325.32 54.68C325.587 54.9467 326.04 55.08 326.68 55.08H330.04V57H314.04V55.08Z" fill="#202020"/>
<path d="M373.887 57.96C370.954 57.96 368.26 57.1067 365.807 55.4C363.353 53.64 361.407 51.2934 359.967 48.36C358.58 45.4267 357.887 42.2267 357.887 38.76C357.887 35.2934 358.58 32.0934 359.967 29.16C361.407 26.2267 363.353 23.9067 365.807 22.2C368.26 20.44 370.954 19.56 373.887 19.56C376.82 19.56 379.513 20.44 381.967 22.2C384.42 23.9067 386.34 26.2267 387.727 29.16C389.167 32.0934 389.887 35.2934 389.887 38.76C389.887 42.2267 389.167 45.4267 387.727 48.36C386.34 51.2934 384.42 53.64 381.967 55.4C379.513 57.1067 376.82 57.96 373.887 57.96ZM373.887 56.04C377.087 56.04 379.38 54.5467 380.767 51.56C382.154 48.52 382.847 44.2534 382.847 38.76C382.847 33.2667 382.154 29.0267 380.767 26.04C379.38 23 377.087 21.48 373.887 21.48C370.687 21.48 368.393 23 367.007 26.04C365.62 29.0267 364.927 33.2667 364.927 38.76C364.927 44.2534 365.62 48.52 367.007 51.56C368.393 54.5467 370.687 56.04 373.887 56.04Z" fill="#202020"/>
</svg>
