<svg width="52" height="52" viewBox="0 0 52 52" fill="none" xmlns="http://www.w3.org/2000/svg">
<rect x="0.5" y="0.5" width="51" height="51" rx="9.5" stroke="#818181"/>
<path d="M26.2099 11C23.67 11.0339 18.2132 11.417 15.1645 13.9908C12.9001 16.076 12.1013 19.1226 12.0183 22.9014C11.9352 26.6791 11.8271 33.7627 19.2505 35.683H19.2545L19.2492 38.612C19.2492 38.612 19.2004 39.7965 20.0532 40.0389C21.0774 40.3323 21.6797 39.4328 22.663 38.4605C23.1994 37.927 23.9442 37.1463 24.5043 36.545C29.5789 36.9402 33.483 36.0407 33.9285 35.9085C34.9514 35.603 40.7509 34.9193 41.6946 27.838C42.67 20.5398 41.2201 15.9208 38.6103 13.8405C37.8248 13.1737 34.6482 11.0521 27.5715 11.0242C27.5715 11.0242 27.0508 10.9939 26.2046 11.0036L26.2099 11ZM26.2864 13.0525C27.0047 13.0476 27.4463 13.0731 27.4463 13.0731C33.4329 13.0973 36.2997 14.7558 36.9654 15.311C39.1731 17.0507 40.3001 21.2127 39.4776 27.3095V27.3119C38.6815 33.2256 33.976 33.5966 33.1087 33.8524C32.7396 33.9615 29.31 34.7459 24.9986 34.4877C24.9986 34.4877 21.7878 38.0519 20.7847 38.9781C20.6266 39.1236 20.442 39.1806 20.3208 39.1527C20.1494 39.1127 20.102 38.9248 20.1033 38.6508L20.1297 33.7797C13.853 32.1794 14.2181 26.1517 14.2906 22.996C14.3618 19.8391 15.0063 17.252 16.9215 15.5123C19.5049 13.3628 24.1366 13.0658 26.293 13.0513L26.2864 13.0525ZM26.7872 16.207C26.685 16.2117 26.5887 16.2522 26.5179 16.3202C26.4472 16.3882 26.4074 16.4785 26.4067 16.5726C26.4061 16.6667 26.4446 16.7575 26.5143 16.8263C26.5841 16.8952 26.6798 16.9369 26.782 16.9428C28.9225 16.955 30.665 17.5939 32.0911 18.8729C33.5054 20.141 34.2264 21.8649 34.2436 24.1271C34.2462 24.3296 34.4281 24.4908 34.6482 24.4908C34.7536 24.4895 34.8541 24.4501 34.9281 24.3812C35.0021 24.3122 35.0436 24.2192 35.0436 24.1223C35.0252 21.717 34.2291 19.7627 32.65 18.3467C31.0815 16.9404 29.1018 16.2215 26.7885 16.207H26.7872ZM21.5677 17.0495C21.2874 17.0138 21.0022 17.0637 20.7557 17.1914L20.7426 17.1938C20.1758 17.4932 19.667 17.8751 19.2321 18.3237C19.2294 18.3285 19.2241 18.3285 19.2215 18.3334C18.8696 18.725 18.6679 19.1068 18.6152 19.4827C18.6049 19.5387 18.6018 19.5957 18.606 19.6524C18.606 19.8173 18.635 19.9797 18.6916 20.1373L18.7088 20.1495C18.8867 20.7314 19.3322 21.6964 20.2971 23.3064C20.8506 24.2374 21.4873 25.1249 22.203 25.9565C22.5589 26.3736 22.9411 26.7724 23.3497 27.1494L23.5237 27.3095C23.9323 27.6829 24.3673 28.0369 24.8207 28.3642C25.7256 29.0226 26.6895 29.6095 27.702 30.1184C29.4524 31.0071 30.5042 31.4156 31.1342 31.5805L31.1474 31.5975C31.3767 31.6664 31.6195 31.6892 31.8592 31.6642C32.2678 31.6205 32.6856 31.4338 33.1087 31.1065C33.114 31.1065 33.1126 31.1041 33.1192 31.1004C33.6069 30.7004 34.0195 30.2275 34.345 29.7087L34.349 29.6965C34.6456 29.1728 34.5467 28.6758 34.1117 28.3387C34.1065 28.3387 33.1917 27.6356 32.7449 27.3325C32.2704 27.0234 31.7827 26.736 31.2779 26.4718C30.6057 26.1262 29.9176 26.3432 29.6329 26.6827L29.0438 27.3664C28.7406 27.7095 28.1778 27.6647 28.1778 27.6647C24.0654 26.6997 22.9648 22.8699 22.9648 22.8699C22.9648 22.8699 22.9161 22.3535 23.2917 22.0746L24.0338 21.5315C24.3989 21.2709 24.6348 20.638 24.2579 20.0185C23.9716 19.5533 23.6592 19.1021 23.322 18.6668C22.9681 18.2407 22.6033 17.8224 22.228 17.412C22.0627 17.2216 21.8274 17.0935 21.5664 17.0519L21.5677 17.0495ZM27.4858 18.1164C27.3799 18.1135 27.2771 18.1494 27.1999 18.2162C27.1228 18.2831 27.0777 18.3754 27.0746 18.4728C27.0714 18.5702 27.1105 18.6648 27.1832 18.7357C27.2558 18.8067 27.3562 18.8482 27.4621 18.851C28.991 18.9541 30.1206 19.416 30.9484 20.2452C31.7788 21.0793 32.1742 22.0928 32.1425 23.3609C32.1483 23.4541 32.1921 23.542 32.2651 23.6068C32.3382 23.6717 32.4351 23.7088 32.5366 23.7108C32.6381 23.7128 32.7367 23.6795 32.8127 23.6175C32.8887 23.5556 32.9365 23.4696 32.9466 23.3767C32.9795 21.9522 32.5063 20.718 31.5402 19.747C30.5648 18.765 29.198 18.2279 27.5201 18.1152H27.4884L27.4858 18.1164ZM28.0961 20.0925C27.9946 20.0938 27.8974 20.1305 27.8241 20.195C27.7507 20.2595 27.7066 20.3472 27.7007 20.4404C27.6901 20.6429 27.8588 20.8162 28.0803 20.8284C28.7696 20.8623 29.2336 21.0405 29.5473 21.34C29.8636 21.637 30.0587 22.0916 30.0956 22.7511C30.1092 22.8425 30.1595 22.9259 30.2367 22.9848C30.3139 23.0438 30.4123 23.0739 30.5124 23.0693C30.6126 23.0648 30.7073 23.0258 30.7778 22.9602C30.8482 22.8945 30.8893 22.8069 30.893 22.7147C30.8535 21.934 30.6096 21.2866 30.1285 20.8271C29.6448 20.3689 28.9515 20.1313 28.1251 20.0913H28.1013L28.0961 20.0925Z" fill="#393939"/>
</svg>
