<svg width="52" height="52" viewBox="0 0 52 52" fill="none" xmlns="http://www.w3.org/2000/svg">
<rect x="0.5" y="0.5" width="51" height="51" rx="9.5" stroke="#818181"/>
<path d="M39.3205 17.2132C39.0067 18.3025 38.5476 19.3359 37.9578 20.2806L37.9816 20.2398C37.4215 21.2537 36.7527 22.425 35.9751 23.7539C35.3083 24.803 34.9553 25.3461 34.9162 25.3832C34.7379 25.6256 34.6227 25.9153 34.5824 26.2224L34.5811 26.2319C34.6129 26.5085 34.7312 26.765 34.9162 26.9583L35.4162 27.5639C38.0916 30.5502 39.5964 32.6087 39.9306 33.7393C39.994 33.925 40.0144 34.1248 39.99 34.3211C39.9656 34.5174 39.8971 34.7041 39.7906 34.8649L39.7931 34.8608C39.6673 35.0018 39.5138 35.1103 39.3442 35.1782C39.1745 35.2462 38.993 35.2718 38.813 35.2532H38.818H35.5225C35.1012 35.2532 34.7136 35.093 34.4098 34.8269L34.4136 34.8296C33.9798 34.4434 33.5817 34.0123 33.2247 33.5424L33.2134 33.5261C32.6375 32.8191 32.1266 32.2239 31.6807 31.7406C30.1955 30.2071 29.0995 29.4404 28.3927 29.4404C28.1646 29.4182 27.9365 29.483 27.7476 29.6237L27.7514 29.621C27.6702 29.7315 27.6106 29.8588 27.5762 29.9951C27.5418 30.1315 27.5334 30.274 27.5513 30.414V30.4085C27.5027 31.0421 27.4869 31.6781 27.5038 32.3136V32.2905V33.8642C27.5393 34.0522 27.5271 34.2471 27.4686 34.4281C27.41 34.6092 27.3072 34.7695 27.1713 34.8921L27.17 34.8934C26.5369 35.2041 25.8399 35.3291 25.1485 35.256L25.1647 35.2573C23.2722 35.2221 21.4244 34.6268 19.8202 33.5356L19.8639 33.5628C18.0142 32.3516 16.4286 30.7185 15.217 28.7764L15.1833 28.7194C14.0071 27.016 12.9733 25.202 12.0941 23.299L12.0065 23.0899C11.4207 21.8576 10.9058 20.5869 10.4651 19.2853L10.3901 19.0341C10.1857 18.3583 10.0556 17.6587 10.0025 16.9498L10 16.9159C10 16.2297 10.3717 15.8867 11.1152 15.8867H14.4031C14.7356 15.8584 15.0655 15.9675 15.327 16.1922L15.3245 16.1894C15.5746 16.4868 15.7596 16.8521 15.8509 17.2594L15.8546 17.2757C16.3978 18.9653 17.0611 20.6064 17.8386 22.1842L17.7549 21.9982C18.3168 23.2379 18.9969 24.4102 19.7839 25.4959L19.7552 25.4539C20.4219 26.3428 20.942 26.7872 21.3154 26.7872L21.3554 26.7886C21.4433 26.7887 21.5297 26.7637 21.6059 26.716C21.682 26.6683 21.7453 26.5997 21.7892 26.517L21.7905 26.5143C21.9102 26.174 21.9576 25.8087 21.9292 25.4457V25.4539V20.1869C21.9059 19.5897 21.7697 19.0041 21.5292 18.4665L21.5392 18.4923C21.3934 18.1506 21.204 17.833 20.9766 17.5486L20.9804 17.5541C20.7707 17.3267 20.6343 17.0319 20.5916 16.7136L20.5903 16.7054C20.5903 16.4746 20.6878 16.2668 20.8403 16.1311L20.8416 16.1297C20.9985 15.9736 21.2038 15.8873 21.4167 15.888H26.6099C26.7403 15.8715 26.8724 15.8904 26.9944 15.943C27.1163 15.9956 27.2244 16.0803 27.3088 16.1894L27.31 16.1908C27.4679 16.5077 27.537 16.8678 27.5088 17.2268V17.22V24.244C27.4889 24.5211 27.5483 24.798 27.6788 25.037L27.6763 25.0316C27.7221 25.1059 27.7841 25.1668 27.8567 25.209C27.9293 25.2511 28.0103 25.2732 28.0927 25.2733H28.0939C28.3047 25.2584 28.5081 25.1824 28.6827 25.0533L28.679 25.056C29.019 24.8021 29.3116 24.5129 29.5654 24.1856L29.5704 24.1789C30.3427 23.2297 31.0352 22.2072 31.6394 21.1238L31.6882 21.0287C32.1182 20.2548 32.5833 19.3016 33.0046 18.3226L33.0821 18.123L33.6397 16.9118C33.7379 16.5986 33.9273 16.3287 34.1792 16.1428C34.4311 15.9568 34.7319 15.865 35.0362 15.8812H35.0324H38.3217C39.2101 15.8812 39.5435 16.3252 39.3218 17.2132H39.3205Z" stroke="#393939" stroke-width="2"/>
</svg>
